<svg width="110" height="70" viewBox="0 0 110 70" fill="none" xmlns="http://www.w3.org/2000/svg">
<mask id="mask0" mask-type="alpha" maskUnits="userSpaceOnUse" x="11" y="0" width="87" height="46">
<g clip-path="url(#clip0)">
<path fill-rule="evenodd" clip-rule="evenodd" d="M72.161 22.6962L73.8575 23.3906C73.8575 23.8679 73.8575 24.3019 73.901 24.7792C73.727 25.9509 73.1615 26.6453 72.6395 26.7321C72.509 26.7321 72.3785 26.7321 72.248 26.7321C71.987 26.4283 71.5955 26.0811 70.943 25.8641C70.421 25.6906 69.812 25.6472 69.2465 25.7774L68.768 25.9075L68.681 30.7245L75.2495 30.8113L75.4235 30.4207C75.815 29.5528 76.337 28.7717 76.9895 28.1641C78.0335 27.166 79.208 26.6453 79.991 26.4283C79.991 25.9509 79.991 25.517 79.991 25.0396C79.3385 25.2132 78.5555 25.4736 77.729 25.9509C76.859 26.4717 76.2935 26.9924 76.076 27.166C75.38 27.817 74.8145 28.5981 74.3795 29.466L69.986 29.4226L70.0295 26.9924C70.16 26.9924 70.334 27.0358 70.508 27.0792C70.943 27.2094 71.204 27.5132 71.291 27.6868L71.465 27.7736L71.639 27.8604C72.074 28.034 72.4655 28.0774 72.9005 27.9906C74.1185 27.7736 75.0755 26.5151 75.2495 24.8226V24.7358V24.649C75.2495 24.5623 75.2495 24.4755 75.206 24.3887C76.598 23.0868 78.077 22.1755 79.643 21.7849C80.426 21.5679 81.035 21.5245 81.644 21.4811C82.5575 21.3943 83.4275 21.3509 84.602 20.7434C85.037 20.5264 85.4285 20.266 85.7765 20.0057C85.7765 20.8302 85.8635 21.6547 86.081 22.4358C86.342 23.434 86.777 24.1717 87.0815 24.649C87.473 25.3 87.821 25.6472 88.4735 26.2981C88.5605 26.3849 88.691 26.5151 88.8215 26.6453C90.17 27.9906 90.9965 28.8151 91.1705 29.2057C91.214 29.2924 91.2575 29.466 91.3445 29.6396C91.562 30.2472 91.823 31.3321 91.4315 32.3736C91.214 32.9377 90.7355 33.5887 90.3875 34.0226C90.17 34.283 89.996 34.4566 89.822 34.6302C89.4305 35.0208 89.0825 35.3679 89.0825 35.9755C89.0825 36.9302 89.996 37.5377 90.431 37.8415C91.214 38.3623 92.084 38.5792 92.78 38.6226L93.041 41.0094L91.04 44.6547H86.0375V43.3962C86.081 42.8321 86.516 42.4415 86.864 42.4415C87.125 42.4415 87.386 42.6151 87.56 42.9189L87.7775 43.3094L88.256 43.2226C88.6475 43.1792 89.1695 43.0057 89.648 42.5717C90.2135 42.0509 90.7355 41.1396 90.431 40.1849C90.17 39.4038 89.5175 39.0566 89.2565 38.9264L89.1695 38.883H89.0825C87.7775 38.6226 86.5595 38.2321 85.472 37.6679C84.602 37.234 84.3845 36.9736 84.2975 36.7566C84.2105 36.4962 84.341 36.1924 84.5585 35.4981C84.7325 35.0208 84.9065 34.717 85.037 34.5C85.211 34.1962 85.3415 33.9358 85.4285 33.5453C85.646 32.417 84.7325 30.9415 84.7325 30.9415C83.8625 29.5094 82.601 28.8151 81.905 28.4245C81.296 28.0774 80.3825 27.6868 79.1645 27.4698C79.1645 27.9038 79.1645 28.3377 79.1645 28.7283C79.6865 28.8585 80.6435 29.1623 81.6005 29.683C80.9915 29.683 80.3825 29.7264 79.817 29.8566C78.947 30.0302 78.2075 30.1604 77.468 30.7679C77.294 30.8981 75.8585 32.1132 75.8585 33.8924C75.8585 34.8038 76.2935 35.7585 76.8155 36.9302L76.859 37.017C77.033 37.3641 77.0765 37.5377 77.033 37.7113C76.9895 37.9283 76.8155 38.1453 76.4675 38.3623C76.163 38.5358 75.8585 38.6226 75.5975 38.6226C75.2495 38.2755 74.5535 37.7981 73.553 37.8415C73.205 37.8849 72.1175 38.0151 71.5085 39.0566C71.03 39.8811 71.117 40.966 71.726 41.834L71.9435 42.1377H79.6865L82.34 38.7528L81.8615 38.3189C81.818 38.3189 81.296 37.7547 81.4265 37.0604C81.5135 36.5396 81.905 36.1491 82.427 36.0189C82.427 35.5415 82.427 35.0641 82.3835 34.5434C81.1655 34.8038 80.252 35.7151 80.0345 36.8C79.817 37.8415 80.339 38.666 80.4695 38.883L78.9905 40.7491H72.683C72.5525 40.4453 72.5525 40.0981 72.7265 39.7943C72.9875 39.3604 73.553 39.2736 73.64 39.2736C74.2925 39.2302 74.684 39.7509 74.7275 39.7509L74.9015 39.9679L75.206 40.0113C75.5975 40.0547 76.424 40.0547 77.207 39.5774C77.903 39.1434 78.2945 38.6226 78.425 38.0151C78.5555 37.3641 78.338 36.8868 78.164 36.4528L78.1205 36.366C77.642 35.3245 77.294 34.5434 77.294 33.8924C77.294 32.7641 78.338 31.8962 78.338 31.8962C78.599 31.7226 78.9905 31.4189 80.078 31.2453C80.8175 31.1151 81.992 31.0283 83.4275 31.2453C83.5145 31.3321 83.6015 31.4623 83.645 31.5924C83.9495 32.1132 84.2975 32.6774 84.167 33.2849C84.1235 33.5019 84.08 33.6321 83.906 33.8491C83.7755 34.1094 83.558 34.4566 83.3405 35.0641C83.0795 35.8453 82.862 36.4528 83.036 37.1472C83.2535 37.9283 83.906 38.3623 84.863 38.883C86.0375 39.4906 87.3425 39.9245 88.7345 40.1849C88.865 40.2717 89.0825 40.4019 89.1695 40.6623C89.3435 41.1396 88.7345 41.7038 88.7345 41.7038C88.604 41.7906 88.517 41.8774 88.3865 41.9207C87.995 41.4434 87.4295 41.183 86.864 41.183C85.733 41.183 84.776 42.1811 84.7325 43.3962V43.4396V46.0434H91.823L94.3895 41.3566L93.9545 37.3641L93.3455 37.4075C92.78 37.4509 91.9535 37.3641 91.214 36.8434C90.9965 36.7132 90.431 36.3226 90.431 36.0623C90.431 35.9755 90.605 35.8019 90.779 35.6283C90.953 35.4547 91.1705 35.2377 91.4315 34.934C91.649 34.6736 92.345 33.8057 92.693 32.9377C92.78 32.6774 92.867 32.417 92.9105 32.1132C93.6065 32.8943 94.52 33.5019 95.6075 33.5453C95.651 33.5453 95.651 33.5453 95.6945 33.5453C96.173 33.5453 97.13 33.4585 97.652 32.7208C98.435 31.6358 97.826 29.8132 97.0865 29.0755L90.7355 22.6528C90.4745 22.2623 90.4745 21.7415 90.779 21.3943C90.9965 21.134 91.3445 21.0038 91.6925 21.0472L93.302 22.6528C93.3455 23.1736 93.5195 24.0849 94.259 24.8226C95.5205 26.1245 97.2605 25.8208 97.478 25.7774L98 25.6906V25.1698C98.0435 23.8679 97.391 22.6528 96.26 22.0453C95.477 21.6113 94.6505 21.6113 94.1285 21.6981L92.3015 19.8755L92.1275 19.8321C91.2575 19.6151 90.3005 19.9189 89.735 20.6132C89.0825 21.4377 89.039 22.6094 89.648 23.5207L89.6915 23.5641L96.086 30.0736C96.521 30.5075 96.8255 31.6358 96.521 32.0698C96.3905 32.2434 95.999 32.3736 95.564 32.3302C94.2155 32.2868 93.041 30.4207 92.519 29.2924C92.432 29.0321 92.345 28.8585 92.3015 28.7717C91.997 28.2075 91.301 27.4698 89.6915 25.8207C89.561 25.6906 89.4305 25.5604 89.3435 25.4736C88.7345 24.866 88.4735 24.6057 88.1255 24.0849C87.8645 23.6943 87.5165 23.0434 87.299 22.2189C86.9945 21.0906 86.951 19.9189 87.1685 18.7038C87.5165 18.2264 87.7775 17.7491 87.9515 17.1849C88.5605 15.449 88.1255 13.8434 87.8645 12.8019C87.56 11.6736 87.038 10.5887 86.342 9.59056C86.429 9.46037 86.4725 9.33018 86.516 9.1566C86.7335 8.50565 86.6465 7.89811 86.516 7.46414L86.3855 6.98679C82.2095 7.03018 78.0335 7.11697 73.8575 7.16037C74.2055 8.54905 74.5535 9.89433 74.945 11.283C75.1625 11.1528 75.4235 11.066 75.641 10.9358C76.25 10.6321 76.9025 10.8057 77.12 11.1962C77.2505 11.4132 77.2505 11.7604 77.12 12.0207C76.9025 12.3679 76.424 12.5415 75.989 12.4113C75.728 12.3245 75.467 12.2811 75.206 12.1943C75.554 13.6264 75.9455 15.0585 76.2935 16.4906C76.4675 16.317 76.6415 16.1434 76.772 15.9698C76.946 15.7962 77.2505 15.5792 77.642 15.4924C77.903 15.4491 78.1205 15.4057 78.2945 15.5358C78.3815 15.5792 78.425 15.666 78.4685 15.7528C77.99 16.1 77.6855 16.317 77.6855 16.3604C75.6845 17.8792 75.3365 18.183 74.9885 18.7472C74.249 19.8755 74.075 21.0906 73.9445 21.8717C73.9445 21.9151 73.9445 21.9585 73.9445 22.0019L72.9875 21.6113L69.812 16.7943V12.7151C70.1165 12.8453 70.421 13.0623 70.682 13.4528C71.378 14.4075 70.943 15.5792 70.943 15.6226L70.769 16.1L71.1605 16.4038C71.6825 16.7943 72.2045 17.1415 72.8135 17.5321C73.1615 17.7491 73.553 17.966 73.901 18.183C74.2055 17.8358 74.51 17.5321 74.8145 17.1849C74.3795 16.9245 73.9445 16.6641 73.5095 16.4038C73.118 16.1434 72.683 15.883 72.2915 15.5792C72.422 14.9283 72.509 13.7566 71.7695 12.7151C70.943 11.5 69.638 11.283 69.2465 11.2396L68.507 11.1528V17.2283L72.161 22.6962ZM94.6505 22.8698C94.955 22.8698 95.2595 22.9132 95.6075 23.1302C96.086 23.3906 96.4775 23.9113 96.608 24.4755C96.2165 24.4321 95.651 24.3019 95.1725 23.8679C94.868 23.5208 94.7375 23.1736 94.6505 22.8698ZM85.385 8.24528C85.385 8.37547 85.3415 8.50565 85.3415 8.63584C85.1675 9.19999 84.5585 9.59056 83.7755 9.67735L83.1665 9.72075V10.3283C83.1665 10.8924 83.0795 11.4566 82.862 11.934C82.5575 12.5849 82.1225 12.9321 81.383 13.5396C80.7305 14.0604 80.1215 14.5377 79.5995 14.9283C79.469 14.7547 79.3385 14.5811 79.1645 14.4509C78.5555 13.9736 77.816 14.1038 77.5115 14.1472C77.2505 14.1906 77.033 14.2774 76.859 14.3641L76.7285 13.6698C77.4245 13.583 78.0335 13.1924 78.3815 12.5849C78.773 11.934 78.773 11.066 78.3815 10.4151C77.903 9.63396 76.946 9.28679 75.9455 9.41697L75.6845 8.33207C75.5975 8.41886 85.385 8.24528 85.385 8.24528ZM79.295 20.5264C77.8595 20.917 76.511 21.6113 75.206 22.6528C75.2495 22.4792 75.2495 22.2623 75.293 22.0887C75.4235 21.3509 75.554 20.3962 76.1195 19.4415C76.337 19.0943 76.511 18.8774 78.512 17.4019C78.512 17.4019 80.1215 16.1868 82.166 14.5811C82.9055 13.9736 83.558 13.4962 83.993 12.5415C84.254 12.0641 84.3845 11.5 84.428 10.9358C84.776 10.8491 85.124 10.6755 85.4285 10.5019C85.9505 11.283 86.342 12.1509 86.603 13.0623C86.864 14.0604 87.212 15.2755 86.7335 16.6641C86.2985 17.8792 85.385 18.8774 83.9495 19.6151C83.036 20.0924 82.34 20.1358 81.5135 20.2226C80.9045 20.2226 80.2085 20.266 79.295 20.5264Z" fill="black"/>
<path fill-rule="evenodd" clip-rule="evenodd" d="M40.4495 17.2283V11.1528L39.71 11.2396C39.3185 11.283 38.057 11.5434 37.187 12.7151C36.404 13.8 36.491 14.9283 36.6215 15.5792C36.23 15.883 35.8385 16.1434 35.4035 16.4038C34.9685 16.6641 34.5335 16.9245 34.0985 17.1849C34.403 17.5321 34.7075 17.8358 35.012 18.183C35.36 17.966 35.708 17.749 36.0995 17.5321C36.7085 17.1415 37.2305 16.7509 37.7525 16.4038L38.144 16.1L38.0135 15.6226C38.0135 15.5792 37.5785 14.4509 38.2745 13.4528C38.5355 13.1057 38.84 12.8887 39.1445 12.7151V16.7943L35.969 21.6113L35.012 22.0019C35.012 21.9585 35.012 21.9151 35.012 21.8717C34.8815 21.0906 34.7075 19.8755 33.968 18.7472C33.62 18.183 33.272 17.8792 31.271 16.3604C31.271 16.3604 30.9665 16.1434 30.488 15.7528C30.5315 15.666 30.575 15.5792 30.662 15.5358C30.836 15.4057 31.0535 15.449 31.3145 15.4924C31.706 15.5792 32.0105 15.7962 32.1845 15.9698C32.3585 16.1434 32.5325 16.317 32.7065 16.4906C33.0545 15.0585 33.446 13.6264 33.794 12.1943C33.533 12.2811 33.272 12.3245 33.011 12.4113C32.576 12.5415 32.054 12.3679 31.88 11.9774C31.7495 11.717 31.7495 11.3698 31.88 11.1528C32.0975 10.8057 32.75 10.5887 33.359 10.8924C33.5765 11.0226 33.8375 11.1094 34.055 11.2396C34.403 9.85094 34.7945 8.50565 35.1425 7.11697C30.9665 7.07358 26.7905 6.98679 22.6145 6.94339L22.484 7.42075C22.3535 7.81131 22.2665 8.41886 22.484 9.1132C22.5275 9.24339 22.571 9.37358 22.658 9.54716C21.962 10.5019 21.44 11.5868 21.1355 12.7585C20.8745 13.8 20.4395 15.3623 21.0485 17.1415C21.2225 17.7057 21.4835 18.183 21.8315 18.6604C22.049 19.8321 22.049 21.0472 21.701 22.1755C21.4835 23 21.092 23.6509 20.8745 24.0415C20.5265 24.5623 20.2655 24.8226 19.6565 25.4302C19.526 25.517 19.439 25.6472 19.3085 25.7773C17.699 27.383 16.9595 28.1207 16.6985 28.7283C16.655 28.8151 16.568 28.9887 16.481 29.249C15.959 30.3773 14.828 32.2434 13.436 32.2868C13.001 32.2868 12.6095 32.2 12.479 31.983C12.1745 31.549 12.479 30.4641 12.914 29.9868L19.352 23.4773L19.3955 23.434C20.0045 22.566 20.0045 21.3509 19.3085 20.5264C18.743 19.8321 17.8295 19.5283 16.916 19.7453L16.655 19.7887L14.828 21.6113C14.306 21.5245 13.523 21.5245 12.74 21.9585C11.6525 22.566 11 23.7811 11 25.083V25.6038L11.522 25.6906C11.696 25.734 13.436 26.0377 14.741 24.7358C15.4805 23.9981 15.6545 23.0868 15.698 22.566L17.3075 20.9604C17.6555 20.917 18.0035 21.0472 18.221 21.3075C18.5255 21.6547 18.5255 22.1755 18.2645 22.566L11.957 29.0755C11.2175 29.8566 10.6085 31.6358 11.3915 32.7207C11.9135 33.4585 12.8705 33.5453 13.349 33.5453C13.3925 33.5453 13.436 33.5453 13.436 33.5453C14.5235 33.5019 15.437 32.8943 16.133 32.1132C16.1765 32.3736 16.2635 32.634 16.3505 32.9377C16.6985 33.8056 17.3945 34.6736 17.612 34.934C17.873 35.2377 18.0905 35.4547 18.2645 35.6283C18.4385 35.8019 18.6125 35.9755 18.6125 36.0623C18.6125 36.3226 18.047 36.7132 17.8295 36.8434C17.09 37.3641 16.2635 37.4075 15.698 37.4075L15.089 37.3641L14.654 41.3566L17.2205 46.0434H24.311V43.4396V43.3962C24.224 42.1811 23.267 41.183 22.1795 41.183C21.614 41.183 21.0485 41.4434 20.657 41.9207C20.5265 41.8773 20.4395 41.7906 20.309 41.7038C20.309 41.7038 19.7 41.183 19.874 40.6623C19.961 40.4453 20.1785 40.2717 20.309 40.1849C21.701 39.9245 22.9625 39.4472 24.1805 38.883C25.1375 38.4056 25.79 37.9283 26.0075 37.1472C26.225 36.4528 26.0075 35.8887 25.703 35.1075C25.4855 34.5 25.268 34.1528 25.1375 33.8924C25.007 33.6755 24.92 33.5453 24.92 33.3283C24.7895 32.7207 25.1375 32.1132 25.442 31.6358C25.529 31.5056 25.5725 31.4189 25.6595 31.2887C27.095 31.0283 28.2695 31.1585 29.009 31.2887C30.0965 31.4623 30.5315 31.7226 30.749 31.9396C30.749 31.9396 31.8365 32.8075 31.8365 33.9358C31.8365 34.5868 31.4885 35.3679 31.01 36.4094L30.9665 36.4962C30.7925 36.9302 30.5315 37.4075 30.662 38.0585C30.7925 38.666 31.184 39.1868 31.88 39.6207C32.663 40.0981 33.4895 40.0981 33.881 40.0547L34.1855 40.0113L34.3595 39.7943C34.3595 39.7509 34.7945 39.2736 35.447 39.317C35.534 39.317 36.0995 39.4038 36.3605 39.8377C36.5345 40.0981 36.5345 40.4453 36.404 40.7924H30.053L28.574 38.9264C28.7045 38.7094 29.2265 37.8849 29.009 36.8434C28.7915 35.7585 27.878 34.8472 26.66 34.5868C26.66 35.0641 26.66 35.5415 26.66 36.0623C27.182 36.1924 27.53 36.6264 27.6605 37.1038C27.791 37.8415 27.2255 38.3623 27.2255 38.3623L26.747 38.7962L29.444 42.1811H37.1L37.3175 41.8773C37.9265 41.0528 38.0135 39.9679 37.535 39.1C36.926 38.0585 35.795 37.8849 35.4905 37.8849C34.49 37.7981 33.794 38.3189 33.446 38.666C33.2285 38.666 32.8805 38.6226 32.576 38.4056C32.228 38.1887 32.054 37.9717 32.0105 37.7547C31.967 37.5811 32.0105 37.4075 32.1845 37.0604L32.228 36.9736C32.75 35.8019 33.185 34.8472 33.185 33.9358C33.185 32.1566 31.7495 30.9849 31.5755 30.8113C30.836 30.2038 30.0965 30.0736 29.2265 29.9C28.6175 29.7698 28.0085 29.7264 27.3995 29.7264C28.313 29.2056 29.27 28.9019 29.792 28.7717C29.792 28.3377 29.792 27.9038 29.792 27.5132C28.574 27.7302 27.617 28.1641 27.0515 28.4679C26.3555 28.8585 25.094 29.5528 24.224 30.9849C24.224 30.9849 23.3105 32.4604 23.528 33.5887C23.615 34.0226 23.7455 34.283 23.9195 34.5434C24.05 34.8038 24.224 35.0641 24.398 35.5415C24.6155 36.2358 24.746 36.5396 24.659 36.8C24.572 37.017 24.3545 37.2773 23.4845 37.7113C22.397 38.2755 21.179 38.666 19.874 38.9264H19.787L19.7 38.9698C19.439 39.1 18.7865 39.4906 18.5255 40.2283C18.221 41.183 18.743 42.0943 19.3085 42.6151C19.787 43.049 20.309 43.2226 20.7005 43.266L21.1355 43.3528L21.44 42.9622C21.614 42.6585 21.875 42.4849 22.136 42.4849C22.5275 42.4849 22.919 42.8755 22.9625 43.4396V44.6981H18.0035L16.0025 41.0528L16.2635 38.7094C16.9595 38.666 17.786 38.449 18.6125 37.9283C19.0475 37.6245 19.961 37.017 19.961 36.0623C19.961 35.4547 19.613 35.1075 19.2215 34.717C19.0475 34.5434 18.8735 34.3698 18.656 34.1094C18.2645 33.6755 17.8295 33.0245 17.612 32.4604C17.2205 31.4189 17.4815 30.334 17.699 29.7264C17.786 29.5094 17.873 29.3792 17.873 29.2924C18.0905 28.9019 18.917 28.0773 20.222 26.7321C20.3525 26.6019 20.483 26.4717 20.57 26.3849C21.2225 25.734 21.527 25.3868 21.962 24.7358C22.2665 24.2585 22.658 23.5207 22.9625 22.5226C23.18 21.7415 23.3105 20.917 23.267 20.0924C23.615 20.3528 24.0065 20.6132 24.4415 20.8302C25.616 21.4377 26.486 21.5245 27.3995 21.5679C28.0085 21.6113 28.6175 21.6547 29.4005 21.8717C30.9665 22.3057 32.4455 23.1736 33.8375 24.4755C33.8375 24.5623 33.8375 24.649 33.794 24.7358V24.8226V24.9094C34.0115 26.6019 34.9685 27.8604 36.1865 28.0773C36.578 28.1641 37.013 28.0773 37.4045 27.9472L37.535 27.7736L37.622 27.6C37.7525 27.4264 37.97 27.166 38.405 26.9924C38.579 26.949 38.753 26.9056 38.8835 26.9056L38.927 29.3358L34.5335 29.3792C34.0985 28.5113 33.533 27.7302 32.837 27.0792C32.6195 26.8623 32.054 26.3415 31.184 25.8641C30.3575 25.3868 29.5745 25.083 28.922 24.9528C28.922 25.4302 28.922 25.8641 28.922 26.3415C29.705 26.5585 30.8795 27.0358 31.9235 28.0773C32.576 28.7283 33.1415 29.5094 33.4895 30.334L33.6635 30.7245L40.232 30.6377L40.145 25.8207L39.6665 25.6906C39.101 25.5604 38.492 25.5604 37.97 25.7773C37.361 25.9943 36.926 26.3849 36.665 26.6453C36.5345 26.6887 36.404 26.6887 36.2735 26.6887C35.7515 26.6019 35.1425 25.9075 35.012 24.7358C35.0555 24.2585 35.099 23.8245 35.0555 23.3472L36.752 22.6528L40.4495 17.2283ZM13.8275 23.8679C13.3925 24.3019 12.827 24.4755 12.392 24.4755C12.5225 23.9113 12.8705 23.3906 13.3925 23.1302C13.7405 22.9566 14.0885 22.9132 14.3495 22.9132C14.2625 23.1736 14.132 23.5207 13.8275 23.8679ZM33.4025 8.41886L33.1415 9.50377C32.1845 9.33018 31.2275 9.72075 30.749 10.5019C30.3575 11.1528 30.3575 11.9774 30.749 12.6717C31.097 13.2792 31.706 13.6698 32.402 13.7566L32.2715 14.4509C32.054 14.3641 31.8365 14.2773 31.619 14.234C31.271 14.1906 30.575 14.0604 29.966 14.5377C29.792 14.6679 29.618 14.8415 29.531 15.0151C29.009 14.6245 28.4 14.1472 27.704 13.6264C26.9645 13.0623 26.5295 12.6717 26.225 12.0207C26.0075 11.5434 25.877 11.0226 25.9205 10.4151V9.80754L25.3115 9.76414C24.572 9.67735 23.963 9.28679 23.7455 8.72263C23.615 8.54905 23.615 8.41886 23.615 8.28867L33.4025 8.41886ZM27.443 20.1792C26.6165 20.0924 25.964 20.049 25.007 19.5717C23.5715 18.834 22.658 17.8358 22.223 16.6207C21.7445 15.2321 22.0925 14.017 22.3535 13.0189C22.6145 12.1075 23.006 11.2396 23.528 10.4585C23.8325 10.6755 24.137 10.8057 24.5285 10.8924C24.572 11.4566 24.746 12.0207 24.9635 12.4981C25.3985 13.4528 26.051 13.9736 26.7905 14.5811C28.8785 16.2302 30.4445 17.4019 30.4445 17.4019C32.4455 18.8773 32.6195 19.1377 32.837 19.4415C33.4025 20.3528 33.5765 21.3509 33.707 22.0887C33.7505 22.2623 33.7505 22.4792 33.794 22.6528C32.5325 21.6113 31.1405 20.917 29.705 20.5264C28.7915 20.266 28.0955 20.2226 27.443 20.1792Z" fill="black"/>
<path fill-rule="evenodd" clip-rule="evenodd" d="M55.8485 8.33206H53.195H40.4495V22.5226V22.6094C40.7105 24.4321 41.45 27.1226 43.5815 29.683C46.6265 33.3283 50.7155 34.5868 53.1515 35.0641C53.5865 35.1509 54.065 35.1943 54.5 35.2377C54.935 35.1509 55.4135 35.1075 55.8485 35.0641C58.2845 34.6302 62.3735 33.3283 65.4185 29.683C67.55 27.166 68.2895 24.4321 68.5505 22.6528V22.566V8.33206H55.8485ZM65.8535 10.849V14.0604H55.892V10.849C55.892 10.8924 65.8535 10.8924 65.8535 10.849ZM55.892 20.0056V16.6207H65.8535V20.0056H55.892ZM43.19 22.566H53.108V25.4736H44.1035C43.5815 24.3887 43.3205 23.3905 43.19 22.566ZM53.108 20.0056H49.3235V10.849H53.108V20.0056ZM46.6265 10.849V20.0056H43.19V10.849H46.6265ZM45.713 28.1207C45.6695 28.0773 45.6695 28.0773 45.626 28.0339H53.0645V32.4604C51.0635 31.983 48.0185 30.8547 45.713 28.1207ZM55.892 22.566H59.1545V31.2887C57.98 31.8528 56.849 32.2 55.892 32.417V22.566ZM63.2435 28.1207C62.8085 28.6415 62.33 29.1189 61.8515 29.5528V22.566H65.81C65.549 24.0415 64.8965 26.1245 63.2435 28.1207Z" fill="black"/>
<path fill-rule="evenodd" clip-rule="evenodd" d="M54.5435 5.42453H64.331V0.0433962H61.7645V2.86415H58.7195V0H56.153V2.86415H54.5435H54.4565H52.847V0H50.2805V2.86415H47.2355V0.0433962H44.669V5.42453H54.4565H54.5435Z" fill="black"/>
</g>
</mask>
<g mask="url(#mask0)">
<rect x="9" y="-1" width="91.8705" height="48.2695" fill="#FFDACA"/>
</g>
<path fill-rule="evenodd" clip-rule="evenodd" d="M108.955 58.9037V69.3778H110V69.7407H106.7V69.3778H107.8V64.1926H103.455V69.3778H104.5V69.7407H101.255V69.3778H102.3V58.9037H101.255V58.5926H104.5V58.9037H103.455V63.7778H107.8V58.9037H106.7V58.5926H110V58.9037H108.955Z" fill="white"/>
<path fill-rule="evenodd" clip-rule="evenodd" d="M92.29 67.6148C92.07 66.6815 91.96 65.4889 91.96 64.1407C91.96 62.8444 92.07 61.6 92.29 60.6667C92.785 58.9037 93.72 58.437 95.535 58.437C97.35 58.437 98.34 58.9037 98.78 60.6667C99 61.6 99.11 62.7926 99.11 64.1407C99.11 65.437 99 66.6815 98.78 67.6148C98.34 69.3778 97.35 69.8444 95.535 69.8444C93.72 69.8444 92.73 69.3778 92.29 67.6148ZM97.68 67.563C97.845 66.6296 97.9 65.3852 97.9 64.1926C97.9 63 97.845 61.7037 97.68 60.8222C97.405 59.163 96.8 58.8519 95.535 58.8519C94.27 58.8519 93.665 59.163 93.39 60.8222C93.225 61.7556 93.17 62.9482 93.17 64.1926C93.17 65.437 93.225 66.6815 93.39 67.563C93.665 69.2222 94.27 69.5333 95.535 69.5333C96.8 69.4815 97.405 69.2222 97.68 67.563Z" fill="white"/>
<path fill-rule="evenodd" clip-rule="evenodd" d="M90.695 69.3778V69.7407H87.175V69.3778H88.66L86.35 59.5259H86.295L83.655 69.3778H84.755V69.7407H82.335V69.3778H83.105L86.02 58.5926H87.23L89.87 69.3778H90.695Z" fill="white"/>
<path fill-rule="evenodd" clip-rule="evenodd" d="M81.8949 69.3778V69.6889H78.3749V69.3778H79.805L78.98 65.9037H75.5699L74.6349 69.3778H75.8449V69.6889H73.2599V69.3778H74.0849L76.9449 58.5407H78.2099L80.9599 69.3778H81.8949ZM78.9249 65.5407L77.3849 59.3185H77.33L75.68 65.5407H78.9249Z" fill="white"/>
<path fill-rule="evenodd" clip-rule="evenodd" d="M72.655 58.9037H70.235V69.3778H72.16V69.7407H67.155V69.3778H69.08V58.9037H66.715V61.1333H65.835V58.5926H73.535V61.1333H72.655V58.9037Z" fill="white"/>
<path fill-rule="evenodd" clip-rule="evenodd" d="M64.185 64.2444C64.185 65.4889 64.075 66.7333 63.855 67.563C63.25 69.7407 62.04 69.7926 60.39 69.7926C57.86 69.7926 57.585 68.237 57.585 67.0963V66.5778H58.465V67.1482C58.465 68.4444 58.63 69.4296 60.39 69.4815C61.71 69.5333 62.48 69.2741 62.81 67.6667C62.975 66.9407 63.03 65.7482 63.03 64.6074V64.1926C62.865 64.0889 62.645 63.9333 62.37 63.9333C61.545 63.9333 61.215 64.6593 60.335 64.6593C59.51 64.6593 59.18 64.2963 58.795 63.7778L59.015 63.6222C59.235 63.8815 59.565 63.9852 59.73 63.9852C60.5 63.9852 61.105 63.363 61.985 63.363C62.59 63.363 62.865 63.5704 63.03 63.7778C63.03 62.5333 62.92 61.3407 62.865 60.7185C62.645 59.2148 62.205 58.8519 60.83 58.8519C59.18 58.8519 58.74 59.5778 58.685 61.4444H57.805V58.5407H58.575L58.685 59.8889C58.85 59.0074 59.4 58.4889 60.83 58.4889C62.645 58.4889 63.525 58.9037 63.965 60.7185C64.075 61.5482 64.185 62.8963 64.185 64.2444Z" fill="white"/>
<path fill-rule="evenodd" clip-rule="evenodd" d="M44.55 63.1037C47.355 63.1037 47.52 64.037 47.52 66.7852C47.52 69.7926 46.2 69.6889 43.89 69.6889H40.535V69.3778H41.58V58.9037H40.535V58.5926H44V58.9037H42.735V63.1037H44.55ZM44.22 69.3778C46.035 69.3778 46.31 68.8074 46.31 66.6296C46.31 64.1926 46.145 63.4148 44.385 63.4148H42.735V69.3778C42.79 69.3778 44.22 69.3778 44.22 69.3778ZM49.94 58.9037V69.3778H51.04V69.6889H47.74V69.3778H48.785V58.9037H47.74V58.5926H51.04V58.9037H49.94Z" fill="white"/>
<path fill-rule="evenodd" clip-rule="evenodd" d="M38.39 64.1926C38.335 65.0741 38.28 65.9556 38.115 66.4222C37.51 67.9259 36.3 68.237 33.825 68.237V69.3778H34.925V69.6889H31.735V69.3778H32.78V68.237C30.195 68.1852 29.095 67.8741 28.49 66.4222C28.325 65.9556 28.215 64.9185 28.215 63.9852C28.215 63.2593 28.325 62.0148 28.49 61.5481C28.93 60.3556 29.7 59.7852 32.78 59.7333V58.9037H31.735V58.5926H34.925V58.9037H33.825V59.6815C36.245 59.7333 37.675 60.0444 38.115 61.4963C38.28 62.0667 38.39 63.363 38.39 64.1926ZM32.78 67.9778V59.9407C30.36 59.9926 29.865 60.3556 29.59 61.4444C29.425 62.0148 29.37 63.7259 29.37 63.8815C29.37 64.8148 29.425 65.7481 29.59 66.3704C29.81 67.4074 30.47 67.9259 32.78 67.9778ZM37.235 64.037C37.235 63.1556 37.18 62.0667 37.015 61.4963C36.74 60.4074 36.245 60.0444 33.825 59.9926V68.0296C36.135 67.9778 36.795 67.4593 37.015 66.4741C37.125 65.8 37.18 64.9185 37.235 64.037Z" fill="white"/>
<path fill-rule="evenodd" clip-rule="evenodd" d="M25.025 58.9037V69.3778H26.125V69.6889H22.825V69.3778H23.925V59.0074L19.635 69.7407H18.37V58.9037H17.38V58.5926H20.57V58.9037H19.47V68.6H19.525L23.485 58.5926H26.125V58.9037H25.025ZM20.185 56.7778C20.185 56.363 20.515 56.1555 20.845 56.1555C21.23 56.1555 21.505 56.363 21.505 56.7259C21.505 57.037 21.23 57.2963 20.955 57.2963C21.175 57.4 21.395 57.5037 21.725 57.5037C22.55 57.5037 23.21 56.9333 23.21 56.2593H23.485C23.485 56.9333 22.825 57.6593 21.725 57.7111C20.955 57.763 20.185 57.3481 20.185 56.7778Z" fill="white"/>
<path fill-rule="evenodd" clip-rule="evenodd" d="M10.505 64.0889V69.3778H14.3V67.1481H15.235V69.7407H8.25V69.3778H9.35V58.9037H8.25V58.5926H15.18V61.1333H14.245V58.9037H10.505V63.7259H13.365V62.5333H13.915V65.437H13.365V64.0889H10.505Z" fill="white"/>
<path fill-rule="evenodd" clip-rule="evenodd" d="M6.6 66.6296V67.1482C6.6 68.2889 6.16 69.8444 3.685 69.8444C2.145 69.8444 0.99 69.7926 0.385 67.6148C0.11 66.7333 0 65.5407 0 64.2963C0 63 0.11 61.6519 0.33 60.7704C0.77 59.0074 1.595 58.437 3.465 58.437C4.73 58.437 5.39 58.8519 5.665 59.6296L5.72 58.4889H6.49V61.3926H5.61C5.555 59.5259 5.06 58.8519 3.465 58.8519C2.035 58.8519 1.65 59.3185 1.375 60.8741C1.265 61.6 1.155 63.1037 1.155 64.6074C1.155 65.7482 1.21 66.8889 1.375 67.6667C1.76 69.3259 2.365 69.4815 3.63 69.4815C5.335 69.4815 5.445 68.7556 5.445 67.1482V66.6296C5.5 66.6296 6.6 66.6296 6.6 66.6296Z" fill="white"/>
<defs>
<clipPath id="clip0">
<rect width="87" height="46" fill="white" transform="translate(11)"/>
</clipPath>
</defs>
</svg>
